<?xml version="1.0" encoding="UTF-8" standalone="no"?>
<svg
   xmlns="http://www.w3.org/2000/svg"
   xmlns:svg="http://www.w3.org/2000/svg"
   xmlns:oryx="http://www.b3mn.org/oryx"
   xmlns:xlink="http://www.w3.org/1999/xlink"
   width="102"
   height="82"
   version="1.0">
	
  <defs></defs>
  
  <oryx:magnets>
  	<oryx:magnet 
  		oryx:cx="0" 
  		oryx:cy="40" 
  		oryx:anchors="left" />
  	<oryx:magnet 
  		oryx:cx="50" 
  		oryx:cy="80" 
  		oryx:anchors="bottom" />
  	<oryx:magnet 
  		oryx:cx="100" 
  		oryx:cy="40" 
  		oryx:anchors="right" />
  	<oryx:magnet 
  		oryx:cx="50" 
  		oryx:cy="0" 
  		oryx:anchors="top" />
  	<oryx:magnet 
  		oryx:cx="50" 
  		oryx:cy="40" 
  		oryx:default="yes" />
  </oryx:magnets>
  
  <g 
  	pointer-events="fill" 
    oryx:minimumSize="50 40">
    <rect 
    	id="mainBody" 
    	oryx:resize="vertical horizontal" 
    	x="0" 
    	y="0" 
    	width="100" 
    	height="80" 
    	rx="10" 
    	ry="10" 
    	stroke="black" 
    	stroke-width="1" 
    	fill="white" />
    
    <g id="documentation"
	   pointer-events="fill">

    	<rect 
    		x="76" 
    		y="56" 
    		width="16" 
    		height="16" 
    		stroke="black" 
    		stroke-width="1"
    		oryx:anchors="bottom right"
    		fill="none" />
    	<path 
    		d="	M 78 58 L 90 58
    			M 78 62 L 90 62
    			M 78 66 L 90 66
    			M 78 70 L 90 70" 
    		fill="none"
    		oryx:anchors="bottom right"
    		stroke="black" />
  	</g>
  		
     <text
       id="label"
	   x="20" 
	   y="20" 
	   oryx:anchors="top left"
	   style="font-family:Arial; font-size: 12pt; fill:black;"></text>
	<path
	   d="M 13.189107,7.2414429 C 12.47323,7.2414629 11.769325,7.3271529 11.095357,7.5226929 C 10.42163,7.7181929 9.7411575,8.0373529 9.0953575,8.4289429 L 8.8766075,8.5539429 L 8.8766075,8.8351926 L 8.8766075,10.678943 L 8.8766075,11.647693 L 9.6578575,11.085193 C 10.263698,10.666733 10.83764,10.358473 11.376607,10.147693 C 11.912817,9.9380126 12.40486,9.8352026 12.845357,9.8351926 C 13.463604,9.8352026 13.897556,10.001653 14.220357,10.272693 C 14.545077,10.545373 14.657851,10.815933 14.657857,11.272693 C 14.657852,11.504993 14.601632,11.749483 14.470357,11.991443 C 14.341234,12.229433 14.127196,12.515023 13.782857,12.835193 L 13.751607,12.835193 L 12.876607,13.710193 C 12.2639,14.295673 11.854205,14.806833 11.626607,15.335193 C 11.407084,15.844793 11.314103,16.475193 11.314107,17.178943 L 11.314107,18.678943 L 11.314107,19.178943 L 11.814107,19.178943 L 13.657857,19.178943 L 14.157857,19.178943 L 14.157857,18.678943 L 14.157857,17.460193 C 14.157851,17.131273 14.172418,16.877043 14.189107,16.710193 C 14.206498,16.536243 14.255023,16.401353 14.282857,16.303943 C 14.314621,16.204673 14.368537,16.098563 14.470357,15.960193 C 14.56728,15.828473 14.766887,15.601163 15.064107,15.303943 L 15.907857,14.460193 C 16.517652,13.877503 16.977487,13.356773 17.251607,12.835193 C 17.521398,12.321833 17.657845,11.752683 17.657857,11.178943 C 17.657847,10.026923 17.20457,9.0242526 16.376607,8.3039429 C 15.547937,7.5830629 14.474877,7.2414629 13.189107,7.2414429 z M 13.189107,8.2414429 C 14.299158,8.2414529 15.097189,8.5118329 15.720357,9.0539426 C 16.344199,9.5966726 16.657849,10.260673 16.657857,11.178943 C 16.657848,11.594803 16.544297,11.987893 16.345357,12.366443 C 16.150707,12.736813 15.782421,13.204363 15.220357,13.741443 L 14.345357,14.585193 C 14.030585,14.899963 13.814828,15.153123 13.657857,15.366443 C 13.505758,15.573143 13.386497,15.796453 13.314107,16.022693 C 13.263805,16.198733 13.210767,16.399783 13.189107,16.616443 C 13.166722,16.840233 13.157851,17.112033 13.157857,17.460193 L 13.157857,18.178943 L 12.314107,18.178943 L 12.314107,17.178943 C 12.314103,16.567603 12.387788,16.078203 12.532857,15.741443 C 12.669834,15.423463 13.004929,14.963273 13.564107,14.428943 L 13.595357,14.428943 L 14.470357,13.553943 C 14.868192,13.184033 15.142435,12.834203 15.345357,12.460193 C 15.546099,12.090193 15.657848,11.678443 15.657857,11.272693 C 15.657848,10.570623 15.373487,9.9349326 14.845357,9.4914426 C 14.315281,9.0463626 13.633348,8.8352026 12.845357,8.8351926 C 12.2572,8.8352126 11.630754,8.9641726 11.001607,9.2101926 C 10.632213,9.3546526 10.256128,9.6174926 9.8766075,9.8351926 L 9.8766075,9.1476926 C 10.370892,8.8712326 10.878734,8.6359129 11.376607,8.4914429 C 11.959141,8.3224329 12.563829,8.2414529 13.189107,8.2414429 z M 11.251607,19.616443 L 11.251607,20.116443 L 11.251607,22.585193 L 11.251607,23.085193 L 11.751607,23.085193 L 13.720357,23.085193 L 14.220357,23.085193 L 14.220357,22.585193 L 14.220357,20.116443 L 14.220357,19.616443 L 13.720357,19.616443 L 11.751607,19.616443 L 11.251607,19.616443 z M 12.251607,20.616443 L 13.220357,20.616443 L 13.220357,22.085193 L 12.251607,22.085193 L 12.251607,20.616443 z "
	   oryx:anchors="top left"
       style="fill:none;fill-rule:evenodd;stroke:#000000;stroke-width:1px;stroke-linecap:butt;stroke-linejoin:miter;stroke-opacity:1" />
  
  </g>
</svg>
