<?xml version="1.0" encoding="UTF-8" standalone="no"?>
<svg
   xmlns="http://www.w3.org/2000/svg"
   xmlns:svg="http://www.w3.org/2000/svg"
   xmlns:oryx="http://www.b3mn.org/oryx"
   xmlns:xlink="http://www.w3.org/1999/xlink"
   width="102"
   height="82"
   version="1.0">
	
  <defs></defs>
  
  <oryx:magnets>
  	<oryx:magnet 
  		oryx:cx="0" 
  		oryx:cy="40" 
  		oryx:anchors="left" />
  	<oryx:magnet 
  		oryx:cx="50" 
  		oryx:cy="80" 
  		oryx:anchors="bottom" />
  	<oryx:magnet 
  		oryx:cx="100" 
  		oryx:cy="40" 
  		oryx:anchors="right" />
  	<oryx:magnet 
  		oryx:cx="50" 
  		oryx:cy="0" 
  		oryx:anchors="top" />
  	<oryx:magnet 
  		oryx:cx="50" 
  		oryx:cy="40" 
  		oryx:default="yes" />
  </oryx:magnets>
  
  <g 
  	pointer-events="fill" 
    oryx:minimumSize="50 40">
    <rect 
    	id="mainBody" 
    	oryx:resize="vertical horizontal" 
    	x="0" 
    	y="0" 
    	width="100" 
    	height="80" 
    	rx="10" 
    	ry="10" 
    	stroke="black" 
    	stroke-width="1" 
    	fill="white" /> 
    <text
       oryx:rotate="270"
       id="label"
	   x="10" 
	   y="40" 
	   oryx:align="middle left"
	   style="font-family:Arial; font-size: 8pt; fill:black;"
       xml:space="preserve"></text>
    <path
    	oryx:anchors="top left"
    	d="	M 14 40 L 14 43.5
    		M 19 41 L 17.5 44
    		M 23 45 L 20 46.5
    		M 24 50 L 21 50
    		M 23 55 L 20 53.5
    		M 19 59 L 17.5 56
    		M 14 60 L 14 57
    		M 9 59 L 10.5 56
    		M 5 55 L 8 53.5
    		M 4 50 L 7 50
    		M 5 45 L 8 46.5
    		M 9 41 L 10.5 44
    		M 16 43 L 14 50 L 18 50" 
    	fill="none" 
    	transform="translate(0, -35)"
    	stroke="black" />
    <text 
    	oryx:anchors="top left"
    	x="30" 
    	y="20" 
    	style="font-family:Arial; font-size: 10pt; fill:black;">onAlarm</text>
  </g>
</svg> 