<?xml version="1.0" encoding="UTF-8" standalone="no"?>
<svg
   xmlns:oryx="http://www.b3mn.org/oryx"
   xmlns:dc="http://purl.org/dc/elements/1.1/"
   xmlns:cc="http://web.resource.org/cc/"
   xmlns:rdf="http://www.w3.org/1999/02/22-rdf-syntax-ns#"
   xmlns:svg="http://www.w3.org/2000/svg"
   xmlns="http://www.w3.org/2000/svg"
   width="300"
   height="140"
   >
  
  <defs >
  </defs>
  
  <oryx:magnets>
    <oryx:magnet
       oryx:cx="150"
       oryx:cy="70"
       oryx:default="yes" />
    <oryx:magnet
       oryx:cx="0"
       oryx:cy="70"
       oryx:anchors="left" />
    <oryx:magnet
       oryx:cx="150"
       oryx:cy="140"
       oryx:anchors="bottom" />
    <oryx:magnet
       oryx:cx="300"
       oryx:cy="70"
       oryx:anchors="right" />
    <oryx:magnet
       oryx:cx="150"
       oryx:cy="0"
       oryx:anchors="top" />
  </oryx:magnets>

  <g pointer-events="fill" oryx:minimumSize="30 10">
    <rect
       y="0"
       x="0"
       height="140"
       width="300"
       id="mainBody"
	   oryx:resize="vertical horizontal"
	   fill="white"
       stroke="black" 
       stroke-width="1"  />
    <text
       oryx:rotate="270"
       id="label"
	   x="10" 
	   y="70" 
	   oryx:align="middle left"
       style="font-family:Arial; font-size: 8pt; fill:black;"
       xml:space="preserve"></text>
    <path 
    	oryx:anchors="right" 
    	d="	M 284 40 L 284 43.5
    		M 289 41 L 287.5 44
    		M 293 45 L 290 46.5
    		M 294 50 L 291 50
    		M 293 55 L 290 53.5
    		M 289 59 L 287.5 56
    		M 284 60 L 284 57
    		M 279 59 L 280.5 56
    		M 275 55 L 278 53.5
    		M 274 50 L 277 50
    		M 275 45 L 278 46.5
    		M 279 41 L 280.5 44
    		M 286 43 L 284 50 L 288 50" 
    	fill="none" 
    	stroke="black" />
    <text 
    	oryx:anchors="top left"
    	x="10" 
    	y="20" 
    	style="font-family:Arial; font-size: 10pt; fill:black;">onAlarm</text>
  </g>
</svg> 