<?xml version="1.0" encoding="UTF-8" standalone="no"?>
<svg
   xmlns:oryx="http://www.b3mn.org/oryx"
   xmlns:dc="http://purl.org/dc/elements/1.1/"
   xmlns:cc="http://web.resource.org/cc/"
   xmlns:rdf="http://www.w3.org/1999/02/22-rdf-syntax-ns#"
   xmlns:svg="http://www.w3.org/2000/svg"
   xmlns="http://www.w3.org/2000/svg"
   width="300"
   height="140"
   >
  
  <defs >
  </defs>
  
  <oryx:magnets>
    <oryx:magnet
       oryx:cx="150"
       oryx:cy="70"
       oryx:default="yes" />
    <oryx:magnet
       oryx:cx="0"
       oryx:cy="70"
       oryx:anchors="left" />
    <oryx:magnet
       oryx:cx="150"
       oryx:cy="140"
       oryx:anchors="bottom" />
    <oryx:magnet
       oryx:cx="300"
       oryx:cy="70"
       oryx:anchors="right" />
    <oryx:magnet
       oryx:cx="150"
       oryx:cy="0"
       oryx:anchors="top" />
  </oryx:magnets>

  <g pointer-events="fill" oryx:minimumSize="30 10">
    <rect
	   y="0"
	   x="0"
	   height="140"
	   width="300"
	   id="mainBody"
	   oryx:resize="vertical horizontal"
	   fill="white"
	   stroke="black" 
	   stroke-width="1"  />
	<path
	   style="fill:none;fill-rule:evenodd;stroke:#000000;stroke-width:1px;stroke-linecap:butt;stroke-linejoin:miter;stroke-opacity:1"
	   d="M 280,43 L 279,52.5 L 275,49.5 L 272,57 L 273,46.5 L 277,50.5 L 280,43 z M 275.989,38.238025 C 275.989,46.036583 275.989,53.841129 275.989,61.639687 L 277.05567,61.639687 C 277.05567,53.841129 277.05567,46.036583 277.05567,38.238025 L 275.989,38.238025 z M 267.589,38.238025 C 267.589,46.036583 267.589,53.841129 267.589,61.639687 L 268.65567,61.639687 C 268.65567,53.841129 268.65567,46.036583 268.65567,38.238025 L 267.589,38.238025 z M 267.62233,37.905615 L 267.62233,38.836363 C 273.51692,38.836363 279.39442,38.836363 285.289,38.836363 L 285.289,37.905615 C 279.39442,37.905615 273.51692,37.905615 267.62233,37.905615 z M 267.589,60.941626 L 267.589,61.872374 C 273.48358,61.872374 279.36108,61.872374 285.25567,61.872374 L 285.25567,60.941626 C 279.36108,60.941626 273.48358,60.941626 267.589,60.941626 z M 284.52233,37.972097 C 284.52233,45.770653 284.52233,53.575204 284.52233,61.373759 L 285.589,61.373759 C 285.589,53.575204 285.589,45.770654 285.589,37.972097 L 284.52233,37.972097 z "
	   id="path2177" 
	   oryx:anchors="right"/>
    <text
       oryx:rotate="270"
       id="label"
	   x="10" 
	   y="70" 
	   oryx:align="middle left"
       style="font-family:Arial; font-size: 8pt; fill:black;"
       xml:space="preserve"></text>
   <text 
    	oryx:anchors="top left"
    	x="10" 
    	y="20" 
    	style="font-family:Arial; font-size: 10pt; fill:black;">catch</text>
 </g>
</svg>
