<?xml version="1.0" encoding="UTF-8" standalone="no"?>
<svg
   xmlns="http://www.w3.org/2000/svg"
   xmlns:svg="http://www.w3.org/2000/svg"
   xmlns:oryx="http://www.b3mn.org/oryx"
   xmlns:xlink="http://www.w3.org/1999/xlink"
   width="162"
   height="82"
   version="1.0">
	
  <defs></defs>
  
  <oryx:magnets>
  	<oryx:magnet 
  		oryx:cx="0" 
  		oryx:cy="40" 
  		oryx:anchors="left" />
  	<oryx:magnet 
  		oryx:cx="80" 
  		oryx:cy="80" 
  		oryx:anchors="bottom" />
  	<oryx:magnet 
  		oryx:cx="160" 
  		oryx:cy="40" 
  		oryx:anchors="right" />
  	<oryx:magnet 
  		oryx:cx="80" 
  		oryx:cy="0" 
  		oryx:anchors="top" />
  	<oryx:magnet 
  		oryx:cx="80" 
  		oryx:cy="40" 
  		oryx:default="yes" />
  </oryx:magnets>


  <g 
  	pointer-events="fill" 
    oryx:minimumSize="50 40">
	   <rect
	     width="160"
	     height="80"
	     rx="10"
	     ry="10"
	     x="0"
	     y="0"
	     id="mainBody"
	     stroke="#f9770d" 
	     fill="white" 
	     stroke-width="1"
	     oryx:resize="vertical horizontal"
	     style="fill-opacity:1;stroke-opacity:1;stroke-linejoin:round;stroke-linecap:round;stroke-miterlimit:4;stroke-dasharray:3,3;stroke-dashoffset:0"/>	  
	  
	  <g id="documentation"
	   	pointer-events="fill">

    	<rect 
    		x="136" 
    		y="56" 
    		width="16" 
    		height="16" 
    		stroke="black" 
    		stroke-width="1"
    		oryx:anchors="bottom right"
    		fill="none" />
    	<path 
    		d="	M 138 58 L 150 58
    			M 138 62 L 150 62
    			M 138 66 L 150 66
    			M 138 70 L 150 70" 
    		fill="none"
    		oryx:anchors="bottom right"
    		stroke="black" />
  	</g>
	  
	  <path
	     d="M 25.56833,50.461539 
	        C 25.57021,55.255119 21.6848,59.142086 16.89125,59.142086 
	        C 12.09769,59.142086 8.21228,55.255119 8.21416,50.461539 
	        C 8.21228,45.667958 12.09769,41.780991 16.89124,41.780991 
	        C 21.6848,41.780991 25.57021,45.667958 25.56833,50.461539 
	        L 25.56833,50.461539 z "
	     style="opacity:1;fill:#000000;stroke:#000000;stroke-width:1.10074639;stroke-linecap:square;stroke-linejoin:miter;stroke-miterlimit:32.20000076;stroke-dasharray:none;stroke-opacity:1"
 		 transform="translate(0,-33)"
	     oryx:anchors="top left"/>
	  <path
	     d="M 17.09375,49.3125 
	        C 16.92709,49.333642 16.77773,49.436447 16.71875,49.59375 
	        C 16.65977,49.751053 16.70083,49.936984 16.8125,50.0625 
	        L 17.3125,50.75 
	        L 15.5625,50.75 
	        C 15.54169,50.748607 15.52081,50.748607 15.5,50.75 
	        C 15.24112,50.767259 15.04524,50.991117 15.0625,51.25 
	        C 15.07976,51.508883 15.30362,51.704759 15.5625,51.6875 
	        L 17.40625,51.6875 
	        L 16.8125,52.5 
	        C 16.68437,52.625217 16.65611,52.800905 16.71875,52.96875 
	        C 16.78141,53.136595 16.91491,53.270606 17.09375,53.28125 
	        C 17.27258,53.291895 17.44914,53.19048 17.53125,53.03125 
	        L 18.625,51.53125 
	        L 18.84375,51.28125 
	        L 18.625,51.03125 
	        C 18.62151,51.023003 18.62894,51.007998 18.625,51 
	        L 18.53125,50.875 
	        L 17.53125,49.5 
	        C 17.43269,49.359689 17.26332,49.287101 17.09375,49.3125 
	        z M 19.6459,46.493977 
	        L 23.8559,46.493977 
	        L 23.8559,54.003672 
	        L 19.6459,54.003672 
	        L 19.6459,46.493977 z "
	     style="fill:#ffffff;fill-opacity:1;fill-rule:evenodd;stroke:none;stroke-width:0.93541437px;stroke-linecap:round;stroke-linejoin:miter;stroke-opacity:1"
	     transform="translate(0,-33)" 
	     oryx:anchors="top left"/>
	  <path
	     d="M 14.79796,46.914145 
	        C 14.79796,47.411205 14.39502,47.814155 13.89796,47.814155 
	        C 13.40089,47.814155 12.99795,47.411205 12.99795,46.914145 
	        C 12.99795,46.417095 13.40089,46.014145 13.89796,46.014145 
	        C 14.39502,46.014145 14.79796,46.417095 14.79796,46.914145 
	        L 14.79796,46.914145 z "
	     style="fill:#f9f9f9;fill-opacity:1;stroke:none;stroke-width:1.00034392;stroke-linecap:butt;stroke-linejoin:miter;stroke-miterlimit:32.20000076;stroke-opacity:1"
	     transform="translate(0,-33)" 
	     oryx:anchors="top left"/>
	  <path
	     d="M 10.40307,48.846535 
	        L 11.2819,47.810055 
	        L 13.03955,47.810055 
	        L 13.72131,50.028295 
	        L 13.72131,50.028295 
	        M 13.67594,50.028295 
	        L 15.41668,50.028295 
	        M 11.72131,50.028295 
	        L 12.98676,51.293744 
	        L 13.72131,52.028295 
	        M 13.72131,52.028295 
	        L 13.72131,54.028295 
	        M 11.72131,50.028295 
	        C 11.72131,52.028295 11.72131,52.028295 11.72131,52.028295 
	        C 9.72131,52.028295 9.72131,52.028295 9.72131,52.028295 
	        M 13.16595,47.951038 
	        C 11.75316,50.035698 11.75316,50.035698 11.75316,50.035698"
	     style="fill:none;fill-rule:evenodd;stroke:#ffffff;stroke-width:0.90100002;stroke-linecap:round;stroke-linejoin:miter;stroke-miterlimit:4;stroke-opacity:1"
	     transform="translate(-0,-33)"
	     oryx:anchors="top left"/>
  <text 
    	oryx:anchors="top left"
    	x="30" 
    	y="20" 
    	style="font-family:Arial; font-size: 10pt; fill:black;">terminationHandler</text>
    </g>
</svg>
