<?xml version="1.0" encoding="UTF-8" standalone="no"?>
<svg
   xmlns="http://www.w3.org/2000/svg"
   xmlns:svg="http://www.w3.org/2000/svg"
   xmlns:oryx="http://www.b3mn.org/oryx"
   xmlns:xlink="http://www.w3.org/1999/xlink"
   width="102"
   height="82"
   version="1.0">
	
  <defs></defs>
  
  <oryx:magnets>
  	<oryx:magnet 
  		oryx:cx="16" 
  		oryx:cy="16" 
  		oryx:default="yes" />
  </oryx:magnets>
  
  <g pointer-events="fill">
  	<rect 
  		id="mainBody" 
  		oryx:resize="vertical horizontal" 
  		x="0" 
  		y="0" 
  		width="100" 
  		height="80" 
  		rx="10" 
  		ry="10" 
  		stroke="black" 
  		stroke-width="1" 
  		fill="white" />
  	<text
     	oryx:anchors="top left"
     	x="35" 
    	y="20" 
    	style="font-family:Arial; font-size: 10pt; fill:black;">else</text>
    <path 
    	oryx:anchors="top left"
    	fill="white" 
    	stroke-width="1" 
    	stroke="black" 
    	d="M 0.5,15.5 L 15.5,0.5 L 30.5,15.5 L 15.5,30.5 L 0.5,15.5M 14.014498,21.554688 L 16.834543,21.554688 L 16.834543,24.222164 L 14.014498,24.222164 L 14.014498,21.554688 z M 16.751192,20.010912 L 14.097849,20.010912 L 14.097849,18.393624 C 14.097843,17.686505 14.2275,17.105401 14.48682,16.650312 C 14.746128,16.195239 15.292541,15.666646 16.126059,15.06453 L 17.376325,14.129863 C 17.904206,13.758807 18.286232,13.408745 18.522403,13.079675 C 18.758554,12.750628 18.876634,12.414568 18.876645,12.071496 C 18.876634,11.448397 18.573329,10.944308 17.966729,10.559226 C 17.36011,10.174172 16.556698,9.9816367 15.556493,9.9816228 C 14.824849,9.9816367 14.044591,10.104159 13.215716,10.349188 C 12.386831,10.594246 11.523222,10.951309 10.624886,11.420379 L 10.624886,9.4460273 C 11.495439,9.0469713 12.377571,8.7494186 13.271283,8.5533676 C 14.164987,8.3573488 15.088794,8.2593311 16.042708,8.2593155 C 17.746766,8.2593311 19.115111,8.5988921 20.147749,9.2779975 C 21.180364,9.9571325 21.696678,10.853292 21.69669,11.966477 C 21.696678,12.498583 21.529976,13.004423 21.196584,13.483998 C 20.863167,13.963594 20.27971,14.50444 19.446211,15.106537 L 18.223728,16.009698 C 17.788441,16.338765 17.480505,16.596061 17.29992,16.781586 C 17.119317,16.967126 16.991975,17.147409 16.917894,17.322433 C 16.862319,17.469466 16.820643,17.647998 16.792867,17.858028 C 16.765075,18.068072 16.751184,18.355123 16.751192,18.719182 L 16.751192,20.010912 z " />
  
  </g>
</svg>
