<?xml version="1.0" encoding="UTF-8" standalone="no"?>
<svg
   xmlns="http://www.w3.org/2000/svg"
   xmlns:svg="http://www.w3.org/2000/svg"
   xmlns:oryx="http://www.b3mn.org/oryx"
   xmlns:xlink="http://www.w3.org/1999/xlink"
   width="102"
   height="82"
   version="1.0">
	
  <defs></defs>
  
  <oryx:magnets>
  	<oryx:magnet 
  		oryx:cx="0" 
  		oryx:cy="40" 
  		oryx:anchors="left" />
  	<oryx:magnet 
  		oryx:cx="50" 
  		oryx:cy="80" 
  		oryx:anchors="bottom" />
  	<oryx:magnet 
  		oryx:cx="100" 
  		oryx:cy="40" 
  		oryx:anchors="right" />
  	<oryx:magnet 
  		oryx:cx="50" 
  		oryx:cy="0" 
  		oryx:anchors="top" />
  	<oryx:magnet 
  		oryx:cx="50" 
  		oryx:cy="40" 
  		oryx:default="yes" />
  </oryx:magnets>
  
  <g 
  	pointer-events="fill" 
    oryx:minimumSize="50 40" 
    oryx:maximumSize="200 160" >
    <rect 
    	id="mainBody" 
    	oryx:resize="vertical horizontal" 
    	x="0" 
    	y="0" 
    	width="100" 
    	height="80" 
    	rx="10" 
    	ry="10" 
    	stroke="black" 
    	stroke-width="1" 
    	fill="white" />
    	
    <g id="documentation"
	   pointer-events="fill">

    	<rect 
    		x="76" 
    		y="56" 
    		width="16" 
    		height="16" 
    		stroke="black" 
    		stroke-width="1" 
    		fill="none" />
    	<path 
    		d="	M 78 58 L 90 58
    			M 78 62 L 90 62
    			M 78 66 L 90 66
    			M 78 70 L 90 70" 
    		fill="none" 
    		stroke="black" />
  	</g>
  	
    <text font-size="14" 
    	  id="label" 
    	  x="50" 
    	  y="40" 
    	  oryx:align="middle center" 
    	  stroke="black"></text>
    <circle
       r="15"
       cy="16"
       cx="16"
       oryx:resize="vertical horizontal"
       id="mainBody"
       stroke="black" fill="white" stroke-width="1" />
    <circle
       r="12"
       cy="16"
       cx="16"
       oryx:resize="vertical horizontal"
       stroke="black" fill="white" stroke-width="1"  />
    <path
       oryx:resize="vertical horizontal"
       d="M 24.186595,11.503217 L 24.186595,20.940272 
       M 11.667536,19.713218 L 8.1291506,19.713218 
       M 20.084899,10.095843 L 20.084899,20.856097 
       M 17.602167,10.553033 L 13.516607,21.144557 
       M 13.448877,10.586903 L 17.534437,21.178427 
       M 11.650586,11.696232 L 8.1122006,11.696232 
       M 26.220851,11.475891 L 22.220041,11.475891 
       M 11.667536,16.15388 L 8.1291506,16.15388 
       M 8.7118976,11.169277 L 8.7118976,20.337806"
       style="fill:none;fill-rule:evenodd;stroke:#000000;stroke-width:1.34357333px;stroke-linecap:butt;stroke-linejoin:miter;stroke-opacity:1" />
  </g>
</svg>