<?xml version="1.0" encoding="UTF-8" standalone="no"?>
<svg
   xmlns="http://www.w3.org/2000/svg"
   xmlns:svg="http://www.w3.org/2000/svg"
   xmlns:oryx="http://www.b3mn.org/oryx"
   xmlns:xlink="http://www.w3.org/1999/xlink"
   width="102"
   height="82"
   version="1.0">
	
  <defs></defs>
  
  <oryx:magnets>
  	<oryx:magnet 
  		oryx:cx="0" 
  		oryx:cy="40" 
  		oryx:anchors="left" />
  	<oryx:magnet 
  		oryx:cx="50" 
  		oryx:cy="80" 
  		oryx:anchors="bottom" />
  	<oryx:magnet 
  		oryx:cx="100" 
  		oryx:cy="40" 
  		oryx:anchors="right" />
  	<oryx:magnet 
  		oryx:cx="50" 
  		oryx:cy="0" 
  		oryx:anchors="top" />
  	<oryx:magnet 
  		oryx:cx="50" 
  		oryx:cy="40" 
  		oryx:default="yes" />
  </oryx:magnets>
  
  <g 
  	pointer-events="fill" 
    oryx:minimumSize="50 40">
    <rect 
    	id="mainBody" 
    	oryx:resize="vertical horizontal" 
    	x="0" 
    	y="0" 
    	width="100" 
    	height="80" 
    	rx="10" 
    	ry="10" 
    	stroke="black" 
    	stroke-width="1" 
    	fill="white" />
    
    <g id="documentation"
	   pointer-events="fill">

    	<rect 
    		x="76" 
    		y="56" 
    		width="16" 
    		height="16" 
    		stroke="black" 
    		stroke-width="1"
    		oryx:anchors="bottom right"
    		fill="none" />
    	<path 
    		d="	M 78 58 L 90 58
    			M 78 62 L 90 62
    			M 78 66 L 90 66
    			M 78 70 L 90 70" 
    		fill="none"
    		oryx:anchors="bottom right"
    		stroke="black" />
  	</g>
  		
    <text
       oryx:rotate="270"
       id="label"
	   x="16" 
	   y="40" 
	   oryx:align="middle center"
	   oryx:anchors="left"
	   style="font-family:Arial; font-size: 12pt; fill:black;"></text>
    <path
       d="M 17.612412,24.97282 C 19.547108,25.1529 21.624473,25.25881 22.447135,23.41477 C 23.257195,21.59896 20.891317,16.04159 25.049115,16.52218 C 20.711064,16.77904 23.330635,10.59124 22.451885,8.6619899 C 21.646732,6.8943204 19.726588,7.0072104 17.915824,7.2020204 M 14.065387,7.1897884 C 12.130691,7.0097084 10.053325,6.9037984 9.2306653,8.7478379 C 8.4205993,10.563638 10.786481,16.121008 6.6286823,15.640418 C 10.966734,15.383558 8.3471663,21.571358 9.2259163,23.500618 C 10.031066,25.268288 11.951211,25.155398 13.761975,24.960588"
	  oryx:anchors="top left"
       fill="white"    
       stroke="black" 
       stroke-width="2"  /> 
  </g>
</svg>
