<?xml version="1.0" encoding="UTF-8" standalone="no"?>
<svg
   xmlns:oryx="http://www.b3mn.org/oryx"
   xmlns:dc="http://purl.org/dc/elements/1.1/"
   xmlns:cc="http://web.resource.org/cc/"
   xmlns:rdf="http://www.w3.org/1999/02/22-rdf-syntax-ns#"
   xmlns:svg="http://www.w3.org/2000/svg"
   xmlns="http://www.w3.org/2000/svg"
   width="300"
   height="140"
   >
  
  <defs >
  </defs>
  
  <oryx:magnets>
    <oryx:magnet
       oryx:cx="150"
       oryx:cy="70"
       oryx:default="yes" />
    <oryx:magnet
       oryx:cx="0"
       oryx:cy="70"
       oryx:anchors="left" />
    <oryx:magnet
       oryx:cx="150"
       oryx:cy="140"
       oryx:anchors="bottom" />
    <oryx:magnet
       oryx:cx="300"
       oryx:cy="70"
       oryx:anchors="right" />
    <oryx:magnet
       oryx:cx="150"
       oryx:cy="0"
       oryx:anchors="top" />
  </oryx:magnets>
     
  <g>
	   <rect
	     width="300"
	     height="140"
	     rx="8"
	     ry="8"
	     x="0"
	     y="0"
	     id="mainBody"
	     stroke="#4653c7" 
	     fill="white" 
	     stroke-width="1"
	     oryx:resize="vertical horizontal"
	     style="fill-opacity:1;stroke-opacity:1;stroke-linejoin:round;stroke-linecap:round;stroke-miterlimit:4;stroke-dasharray:3,3;stroke-dashoffset:0"/>	  
	  <path
	     d="M 295.56833,50.461539 C 295.57021,55.255119 291.6848,59.142086 286.89125,59.142086 C 282.09769,59.142086 278.21228,55.255119 278.21416,50.461539 C 278.21228,45.667958 282.09769,41.780991 286.89124,41.780991 C 291.6848,41.780991 295.57021,45.667958 295.56833,50.461539 L 295.56833,50.461539 z "
	     style="opacity:1;fill:#000000;stroke:#000000;stroke-width:1.10074639;stroke-linecap:square;stroke-linejoin:miter;stroke-miterlimit:32.20000076;stroke-dasharray:none;stroke-opacity:1"
 		 transform="translate(0,10)"
	     oryx:anchors="right"/>
	  <path
	     d="M 287.09375,49.3125 C 286.92709,49.333642 286.77773,49.436447 286.71875,49.59375 C 286.65977,49.751053 286.70083,49.936984 286.8125,50.0625 L 287.3125,50.75 L 285.5625,50.75 C 285.54169,50.748607 285.52081,50.748607 285.5,50.75 C 285.24112,50.767259 285.04524,50.991117 285.0625,51.25 C 285.07976,51.508883 285.30362,51.704759 285.5625,51.6875 L 287.40625,51.6875 L 286.8125,52.5 C 286.68437,52.625217 286.65611,52.800905 286.71875,52.96875 C 286.78141,53.136595 286.91491,53.270606 287.09375,53.28125 C 287.27258,53.291895 287.44914,53.19048 287.53125,53.03125 L 288.625,51.53125 L 288.84375,51.28125 L 288.625,51.03125 C 288.62151,51.023003 288.62894,51.007998 288.625,51 L 288.53125,50.875 L 287.53125,49.5 C 287.43269,49.359689 287.26332,49.287101 287.09375,49.3125 z M 289.6459,46.493977 L 293.8559,46.493977 L 293.8559,54.003672 L 289.6459,54.003672 L 289.6459,46.493977 z "
	     style="fill:#ffffff;fill-opacity:1;fill-rule:evenodd;stroke:none;stroke-width:0.93541437px;stroke-linecap:round;stroke-linejoin:miter;stroke-opacity:1"
	     transform="translate(0,10)" 
	     oryx:anchors="right"/>
	  <path
	     d="M 284.79796,46.914145 C 284.79796,47.411205 284.39502,47.814155 283.89796,47.814155 C 283.40089,47.814155 282.99795,47.411205 282.99795,46.914145 C 282.99795,46.417095 283.40089,46.014145 283.89796,46.014145 C 284.39502,46.014145 284.79796,46.417095 284.79796,46.914145 L 284.79796,46.914145 z "
	     style="fill:#f9f9f9;fill-opacity:1;stroke:none;stroke-width:1.00034392;stroke-linecap:butt;stroke-linejoin:miter;stroke-miterlimit:32.20000076;stroke-opacity:1"
	     transform="translate(0,10)" 
	     oryx:anchors="right"/>
	  <path
	     d="M 280.40307,48.846535 L 281.2819,47.810055 L 283.03955,47.810055 L 283.72131,50.028295 L 283.72131,50.028295 M 283.67594,50.028295 L 285.41668,50.028295 M 281.72131,50.028295 L 282.98676,51.293744 L 283.72131,52.028295 M 283.72131,52.028295 L 283.72131,54.028295 M 281.72131,50.028295 C 281.72131,52.028295 281.72131,52.028295 281.72131,52.028295 C 279.72131,52.028295 279.72131,52.028295 279.72131,52.028295 M 283.16595,47.951038 C 281.75316,50.035698 281.75316,50.035698 281.75316,50.035698"
	     style="fill:none;fill-rule:evenodd;stroke:#ffffff;stroke-width:0.90100002;stroke-linecap:round;stroke-linejoin:miter;stroke-miterlimit:4;stroke-opacity:1"
	     transform="translate(0,10)"
	     oryx:anchors="right"/>
	  <text 
    	oryx:anchors="top left"
    	x="10" 
    	y="20" 
    	style="font-family:Arial; font-size: 10pt; fill:black;">term.Handler</text>
    </g>
</svg>
