<?xml version="1.0" encoding="utf-8" standalone="no" ?>
<svg 
    xmlns="http://www.w3.org/2000/svg"
    xmlns:svg="http://www.w3.org/2000/svg"
    xmlns:oryx="http://www.b3mn.org/oryx"
    xmlns:xlink="http://www.w3.org/1999/xlink"
    
    width="67px" 
    height="67px"
    version="1.0">
  <g>	
    <defs>
        <radialGradient id="background" cx="30%" cy="30%" r="50%" fx="0%" fy="0%">
            <stop offset="0%" stop-color="#ffffff" stop-opacity="1"></stop>
            <stop offset="100%" stop-color="#ffffff" stop-opacity="1" id="fill_el"></stop>
        </radialGradient>
    </defs>
		
	<path fill="url(#background)" stroke="#010101" d="M3.215,63.514H64V43.306c0,0-6.018-10.101-18.268-13.327H23.208
        C8.574,33.455,3,44.81,3,44.81L3.215,63.514z"/>
        	
    <path fill="none" stroke="#010101" d="M15.842,52.765v10.32"/>
	
    <path fill="none" stroke="#010101" d="M50.618,52.765v10.32"/>
	
    <circle fill="#010101" stroke="#010101" cx="33.906" cy="16.433" r="13.975"/>
	
    <path fill="#F1F0F1" stroke="#010101" d="M21.114,19.443c0,0,7.259-6.258,13.869-4.662c6.611,1.598,11.93-1.786,11.93-1.786
        c0.645,4.354,0.108,9.673-3.764,14.404c0,0,2.796,1.934,2.796,3.869c0,1.938,0.321,4.837-2.58,7.742
        c-2.9,2.898-14.189,3.224-17.414,0c-3.224-3.228-3.224-4.73-3.224-6.882c0-2.151,1.504-3.224,3.224-4.944
        C23.157,25.679,19.505,21.056,21.114,19.443z"/>
        	
    <text font-size="12" id="text_name" x="34" y="66" oryx:align="center top" stroke="black" />        	
  </g>
</svg>
