<?xml version="1.0" encoding="UTF-8" standalone="no"?>
<!-- Created with Inkscape (http://www.inkscape.org/) -->
<svg
   xmlns:oryx="http://www.b3mn.org/oryx"
   xmlns:svg="http://www.w3.org/2000/svg"
   xmlns="http://www.w3.org/2000/svg"
   version="1.0"
   id="svg2160">
  <oryx:magnets>
    <oryx:magnet
       oryx:anchors="left"
       oryx:cy="36"
       oryx:cx="2" />
   <oryx:magnet
       oryx:anchors="left"
       oryx:cy="8"
       oryx:cx="12" />
    <oryx:magnet
       oryx:anchors="bottom"
       oryx:cy="48"
       oryx:cx="30" />
    <oryx:magnet
       oryx:anchors="right"
       oryx:cy="20"
       oryx:cx="62" />
    <oryx:magnet
       oryx:anchors="top"
       oryx:cy="0"
       oryx:cx="40" />
    <oryx:magnet
       oryx:default="yes"
       oryx:cy="24"
       oryx:cx="30" />
  </oryx:magnets>
  <g
     id="g2164">
    <path
       d="M 46,26 L 2,26 L 2,48 L 46,48 L 46,26 L 62,10 L 62,32 L 46,48 M 62,10 L 60,10 L 60,12 L 62,10 M 2,26 L 4,26 L 4,24 L 2,26"
       style="fill:#ffffff;fill-opacity:1;stroke:#000000;stroke-width:0.5;stroke-linecap:round;stroke-linejoin:round;stroke-miterlimit:0;stroke-dasharray:none;stroke-opacity:1"
       id="frame" oryx:resize="vertical horizontal" />
	<path
       d="M 4,26 L 4,16 L 44,16 L 44,26 L 4,26 M 8,16 L 8,12 L 48,12 L 48,24 L 46,26 L 44,26 L 44,16 L 8,16 M 12,12 L 12,8 L 52,8 L 52,20 L 48,24 L 48,12 L 12,12 M 16,8 L 16,4 L 56,4, L 56,16 L 52,20 L 52,8 L 16,8 M 20,4 L 20,0 L 60,0 L 60,12 L 56,16 L 56,4 L 20,4"
       style="fill:#ffffff;fill-opacity:1;stroke:#000000;stroke-width:0.5;stroke-linecap:round;stroke-linejoin:round;stroke-miterlimit:0;stroke-dasharray:none;stroke-opacity:1"
       id="refs" oryx:resize="vertical horizontal" />
    <path
    	d="M 8,23 L 40,23"
    	style="fill:#000000;fill-opacity:1;stroke:#000000;stroke-width:1;stroke-linecap:round;stroke-linejoin:round;stroke-miterlimit:0;stroke-dasharray:none;stroke-opacity:1"
       	id="line" oryx:resize="vertical horizontal" />
    <text font-size="14" id="text" x="30" y="48" oryx:align="center top" stroke="black" oryx:resize="vertical horizontal"></text>
  </g>
</svg>
