<?xml version="1.0" encoding="UTF-8" standalone="no"?>
<svg
   xmlns="http://www.w3.org/2000/svg"
   xmlns:svg="http://www.w3.org/2000/svg"
   xmlns:oryx="http://www.b3mn.org/oryx"
   xmlns:xlink="http://www.w3.org/1999/xlink"

   width="102"
   height="82"
   version="1.0">
  <defs>
	<marker
       id="loopArrow"
       refX="0"
       refY="0"
       orient="auto">
      <path
         d="M 0 0 L 2 2 L 0 0 L 2 -2 L 0 0z "
         fill="none"
         stroke="black"
         stroke-linecap="round"
         transform="rotate(20.5)"
         id="path9356" />
    </marker>
  </defs>
  <oryx:magnets>
  	<oryx:magnet oryx:cx="0" oryx:cy="40" oryx:anchors="left" />
  	<oryx:magnet oryx:cx="50" oryx:cy="80" oryx:anchors="bottom" />
  	<oryx:magnet oryx:cx="100" oryx:cy="40" oryx:anchors="right" />
  	<oryx:magnet oryx:cx="50" oryx:cy="0" oryx:anchors="top" />
  	<oryx:magnet oryx:cx="50" oryx:cy="40" oryx:default="yes" />
  </oryx:magnets>
  <g pointer-events="fill" oryx:minimumSize="50 40" oryx:maximumSize="200 160" >
    <rect id="taskrect" oryx:resize="vertical horizontal" x="0" y="0" width="100" height="80" rx="10" ry="10" stroke="black" stroke-width="1" fill="white" />
    	<text font-size="14" id="acttext" x="50" y="40" oryx:align="middle center" stroke="black"></text>
    
	<g id="none"></g>
	<g
       id="loop"
       transform="translate(-0.3314563,-0.3314563)">
      <path
         oryx:anchors="bottom"
         style="opacity:1;fill:none;fill-opacity:1;stroke:#000000;stroke-width:1.3;stroke-linecap:round;stroke-linejoin:round;stroke-miterlimit:2.0999999;stroke-dasharray:none;stroke-opacity:1"
         id="path2396"
         d="M 33.608384,51.188343 L 33.608384,54.188343 L 30.608384,54.188343 M 33.608384,54.188343 A 4.875,4.875 0 1 1 37.639336,54.189378"
         transform="matrix(1.1346154,0,0,1.1346154,8.598339,17.148475)"
         />
    </g>
	<g id="multiple">
		<path oryx:anchors="bottom" fill="none" stroke="black" d="M46 70 v8 M50 70 v8 M54 70 v8" stroke-width="2" />
	</g>
	<g id="compensation">
		<path oryx:anchors="bottom" fill="none" stroke="black" d="M 62 74 L 66 70 L 66 78 L 62 74 L 62 70 L 58 74 L 62 78 L 62 74" stroke-width="1" />
	</g>
  </g>
</svg>