<?xml version="1.0" encoding="UTF-8" standalone="no"?>
<svg
   xmlns="http://www.w3.org/2000/svg"
   xmlns:svg="http://www.w3.org/2000/svg"
   xmlns:oryx="http://www.b3mn.org/oryx"
   xmlns:xlink="http://www.w3.org/1999/xlink"
   width="102"
   height="82"
   version="1.0">
  <defs></defs>
  <oryx:magnets>
  	<oryx:magnet oryx:cx="0" oryx:cy="80" oryx:anchors="left" />
  	<oryx:magnet oryx:cx="100" oryx:cy="160" oryx:anchors="bottom" />
  	<oryx:magnet oryx:cx="200" oryx:cy="80" oryx:anchors="right" />
  	<oryx:magnet oryx:cx="100" oryx:cy="0" oryx:anchors="top" />
  	<oryx:magnet oryx:cx="100" oryx:cy="80" oryx:default="yes" />
  </oryx:magnets>
  <g pointer-events="fill" oryx:minimumSize="200 160" oryx:maximumSize="" >
    <rect id="border" oryx:resize="vertical horizontal" x="0" y="0" width="200" height="160" rx="10" ry="10" stroke="black" stroke-width="1" fill="none" />
    <rect id="taskrect" oryx:anchors="bottom top right left" x="2" y="2" width="196" height="156" rx="8" ry="8" stroke="black" stroke-width="1" fill="white" />
    	<text font-size="14" id="acttext" x="8" y="10" oryx:align="middle left" oryx:anchors="left top" stroke="black"></text>
    	
	<g id="none"></g>
	<g id="loop">
		<path
	         oryx:anchors="bottom"
	       	style="opacity:1;fill:none;fill-opacity:1;stroke:#000000;stroke-width:1.5;stroke-linecap:round;stroke-linejoin:round;stroke-miterlimit:2.0999999;stroke-dasharray:none;stroke-opacity:1"
	         id="path2396"
	         d="M 100.5,153 L 100.5,156 L 97.5,156 M 100.5,156 A 4.875,4.875 0 1 1 104.5,156"
			/>
	</g>
	<g id="multiple">
		<path oryx:anchors="bottom" fill="none" stroke="black" d="M97 148 v8 M101 148 v8 M105 148 v8" stroke-width="2" />
	</g>
	<g id="adhoc">
		<text 
			oryx:anchors="bottom"
			x="101"
			y="156"
			font-size="20"
			font-weight="bold"
			transform="translate(8,0)"
		>~</text>
	</g>
	<g id="compensation">
		<path oryx:anchors="bottom" fill="none" stroke="black" d="M 101 152 L 105 148 L 105 156 L 101 152 L 101 148 L 97 152 L 101 156 L 101 152" stroke-width="1"
		transform="translate(-14,0)" />
	</g>
  </g>
</svg>