<?xml version="1.0" encoding="UTF-8" standalone="no"?>
<svg
   xmlns="http://www.w3.org/2000/svg"
   xmlns:svg="http://www.w3.org/2000/svg"
   xmlns:oryx="http://www.b3mn.org/oryx"
   xmlns:xlink="http://www.w3.org/1999/xlink"
   version="1.0">
  <defs></defs>
  <oryx:magnets>
  	<oryx:magnet oryx:cx="50" oryx:cy="40" oryx:default="yes"/>
  	<oryx:magnet oryx:cx="-16" oryx:cy="40" oryx:anchors="left" />
  	<oryx:magnet oryx:cx="116" oryx:cy="40" oryx:anchors="right" />
  	<oryx:magnet oryx:cx="0" oryx:cy="40" oryx:anchors="left" />
  	<oryx:magnet oryx:cx="50" oryx:cy="80" oryx:anchors="bottom" />
  	<oryx:magnet oryx:cx="100" oryx:cy="40" oryx:anchors="right" />
  	<oryx:magnet oryx:cx="50" oryx:cy="0" oryx:anchors="top" />
  </oryx:magnets>
  <g pointer-events="fill" oryx:minimumSize="132 80" oryx:maximumSize="396 240">
    <rect id="c" oryx:anchors="left right" oryx:resize="vertical horizontal" x="0" y="0" width="100" height="80" rx="10" ry="10" stroke="black" stroke-width="1" fill="white" />
 	<path oryx:anchors="bottom" fill="none" stroke="black" stroke-width="2" d="m47 70 v8 M52 70 v8" />
 	<g id="andjoin">
	    <path oryx:anchors="left" fill="white" stroke-width="1" stroke="black" d="M -16,40 L 0,56 L 16,40 L 0,24 z" />
	    <path oryx:anchors="left" fill="white" stroke-width="3" stroke="black" d="M -8,40 h 16 M 0,32 v 16" />
    </g>
    <g id="xorjoin">
	    <path oryx:anchors="left" fill="white" stroke-width="1" stroke="black" d="M -16,40 L 0,56 L 16,40 L 0,24 z" />
	    <path oryx:anchors="left" fill="white" stroke-width="3" stroke="black" d="M -6,34 l 12,12 M -6,46 l 12,-12" />
    </g>
    <g id="andsplit">
	    <path oryx:anchors="right" fill="white" stroke-width="1" stroke="black" d="M 84,40 L 100,56 L 116,40 L 100,24 z" />
	    <path oryx:anchors="right" fill="white" stroke-width="3" stroke="black" d="M 92,40 h 16 M 100,32 v 16" />
    </g>
    <g id="xorsplit">
	    <path oryx:anchors="right" fill="white" stroke-width="1" stroke="black" d="M 84,40 L 100,56 L 116,40 L 100,24 z" />
	    <path oryx:anchors="right" fill="white" stroke-width="3" stroke="black" d="M 94,34 l 12,12 M 94,46 l 12,-12" />
    </g>
    
    <image id="enabled" 	x="2" y="2" width="16" height="16" oryx:anchors="left top" xlink:href="images/hourglass_go.png"/>
 	<image id="reopened" 	x="2" y="2" width="16" height="16" oryx:anchors="left top" xlink:href="images/hourglass_go.png"/>
 	<image id="ready" 		x="2" y="2" width="16" height="16" oryx:anchors="left top" xlink:href="images/bullet_go.png" />
 	<image id="skipped" 	x="2" y="2" width="16" height="16" oryx:anchors="left top" xlink:href="images/cancel.png" />
 	<image id="completed" 	x="2" y="2" width="16" height="16" oryx:anchors="left top" xlink:href="images/tick.png" />
 	
    <text font-size="14" id="t" x="50" y="40" oryx:align="middle center"></text>
  </g>
</svg>