<?xml version="1.0" encoding="UTF-8" standalone="no"?>
<svg
   xmlns="http://www.w3.org/2000/svg"
   xmlns:svg="http://www.w3.org/2000/svg"
   xmlns:oryx="http://www.b3mn.org/oryx"
   xmlns:xlink="http://www.w3.org/1999/xlink"
   width="102"
   height="82"
   version="1.0">
	
  <defs></defs>
  
  <oryx:magnets>
  	<oryx:magnet 
  		oryx:cx="0" 
  		oryx:cy="40" 
  		oryx:anchors="left" />
  	<oryx:magnet 
  		oryx:cx="50" 
  		oryx:cy="80" 
  		oryx:anchors="bottom" />
  	<oryx:magnet 
  		oryx:cx="100" 
  		oryx:cy="40" 
  		oryx:anchors="right" />
  	<oryx:magnet 
  		oryx:cx="50" 
  		oryx:cy="0" 
  		oryx:anchors="top" />
  	<oryx:magnet 
  		oryx:cx="50" 
  		oryx:cy="40" 
  		oryx:default="yes" />
  </oryx:magnets>
  
  <g 
  	pointer-events="fill" 
    oryx:minimumSize="50 40">
    <rect 
    	id="mainBody" 
    	oryx:resize="vertical horizontal" 
    	x="0" 
    	y="0" 
    	width="100" 
    	height="80" 
    	rx="10" 
    	ry="10" 
    	stroke="black" 
    	stroke-width="1" 
    	fill="white" />
    
    <g id="documentation"
	   pointer-events="fill">

    	<rect 
    		x="76" 
    		y="56" 
    		width="16" 
    		height="16" 
    		stroke="black" 
    		stroke-width="1"
    		oryx:anchors="bottom right"
    		fill="none" />
    	<path 
    		d="	M 78 58 L 90 58
    			M 78 62 L 90 62
    			M 78 66 L 90 66
    			M 78 70 L 90 70" 
    		fill="none"
    		oryx:anchors="bottom right"
    		stroke="black" />
  	</g>
  		
  	<text 
    	oryx:anchors="top left"
    	x="30" 
    	y="20" 
    	style="font-family:Arial; font-size: 10pt; fill:black;">catch</text>
	<path
	   style="fill:none;fill-rule:evenodd;stroke:#000000;stroke-width:1px;stroke-linecap:butt;stroke-linejoin:miter;stroke-opacity:1"
	   d="M 20,43 
	      L 19,52.5 
	      L 15,49.5 
	      L 12,57 
	      L 13,46.5 
	      L 17,50.5 
	      L 20,43 
	      z M 15.989,38.238025 
	      C 15.989,46.036583 15.989,53.841129 15.989,61.639687 
	      L 17.05567,61.639687 
	      C 17.05567,53.841129 17.05567,46.036583 17.05567,38.238025 
	      L 15.989,38.238025 
	      z M 7.589,38.238025 
	      C 7.589,46.036583 7.589,53.841129 7.589,61.639687 
	      L 8.65567,61.639687 
	      C 8.65567,53.841129 8.65567,46.036583 8.65567,38.238025 
	      L 7.589,38.238025 
	      z M 7.62233,37.905615 
	      L 7.62233,38.836363 
	      C 13.51692,38.836363 19.39442,38.836363 25.289,38.836363 
	      L 25.289,37.905615 
	      C 19.39442,37.905615 13.51692,37.905615 7.62233,37.905615 
	      z M 7.589,60.941626 
	      L 7.589,61.872374 
	      C 13.48358,61.872374 19.36108,61.872374 25.25567,61.872374 
	      L 25.25567,60.941626 
	      C 19.36108,60.941626 13.48358,60.941626 7.589,60.941626 
	      z M 24.52233,37.972097 
	      C 24.52233,45.770653 24.52233,53.575204 24.52233,61.373759 
	      L 25.589,61.373759 
	      C 25.589,53.575204 25.589,45.770654 25.589,37.972097 
	      L 24.52233,37.972097 z "
	   transform="translate(0,-30)"
	   oryx:anchors="top left"/>
 </g>
</svg>
