<?xml version="1.0" encoding="UTF-8" standalone="no"?>
<svg
   xmlns="http://www.w3.org/2000/svg"
   xmlns:svg="http://www.w3.org/2000/svg"
   xmlns:oryx="http://www.b3mn.org/oryx"
   xmlns:xlink="http://www.w3.org/1999/xlink"
   width="102"
   height="82"
   version="1.0">
	
  <defs></defs>
  
  <oryx:magnets>
  	<oryx:magnet 
  		oryx:cx="0" 
  		oryx:cy="40" 
  		oryx:anchors="left" />
  	<oryx:magnet 
  		oryx:cx="50" 
  		oryx:cy="80" 
  		oryx:anchors="bottom" />
  	<oryx:magnet 
  		oryx:cx="100" 
  		oryx:cy="40" 
  		oryx:anchors="right" />
  	<oryx:magnet 
  		oryx:cx="50" 
  		oryx:cy="0" 
  		oryx:anchors="top" />
  	<oryx:magnet 
  		oryx:cx="50" 
  		oryx:cy="40" 
  		oryx:default="yes" />
  </oryx:magnets>
  
  <g 
  	pointer-events="fill" 
    oryx:minimumSize="50 40">
    <rect 
    	id="mainBody" 
    	oryx:resize="vertical horizontal" 
    	x="0" 
    	y="0" 
    	width="100" 
    	height="80" 
    	rx="10" 
    	ry="10" 
    	stroke="black" 
    	stroke-width="1" 
    	fill="white" />
    
    <g id="documentation"
	   pointer-events="fill">
    	
    	<rect 
    		x="76" 
    		y="56" 
    		width="16" 
    		height="16" 
    		stroke="black" 
    		stroke-width="1"
    		oryx:anchors="bottom right"
    		fill="none" />
    	<path 
    		d="	M 78 58 L 90 58
    			M 78 62 L 90 62
    			M 78 66 L 90 66
    			M 78 70 L 90 70" 
    		fill="none"
    		oryx:anchors="bottom right"
    		stroke="black" />
  	</g>
  		
     <text
       id="label"
	   x="30" 
	   y="20" 
	   oryx:anchors="top left"
	   style="font-family:Arial; font-size: 12pt; fill:black;"></text>
    <path
       d="M 19.273802,10.187935 C 20.557593,13.978344 18.281917,18.098969 14.543865,19.334734 C 10.342387,20.723703 5.7913956,18.195558 4.4473749,14.047413 C 2.9529234,9.4349836 5.7337743,4.4532715 10.292079,3.0012312 C 11.043892,2.7617424 11.826229,2.619522 12.61412,2.5777225"
	   oryx:anchors="top left"
       style="fill:none;fill-rule:evenodd;stroke:#000000;stroke-width:1px;stroke-linecap:butt;stroke-linejoin:miter;stroke-opacity:1" />
     <path
       d="M 11.62943,3.956265 L 12.170325,0.3622452 L 15.996404,2.5876356 L 11.62943,3.956265 z "
	   oryx:anchors="top left"
       style="fill:black;fill-rule:evenodd;stroke:#000000;stroke-width:1px;stroke-linecap:butt;stroke-linejoin:miter;stroke-opacity:1" />
     <path
       d="M 16.202629,13.235142 C 15.543349,15.699198 12.879628,17.079915 10.460318,16.413676 C 7.7410742,15.66484 6.2213823,12.715069 6.9751997,10.040001 C 7.8133889,7.0655229 11.04946,5.4067523 13.980239,6.2482973 C 14.46362,6.3870955 14.928799,6.58827 15.361419,6.844664"
	   oryx:anchors="top left"
       style="fill:none;fill-rule:evenodd;stroke:#000000;stroke-width:1px;stroke-linecap:butt;stroke-linejoin:miter;stroke-opacity:1" />
     <path
       d="M 14.175901,8.4894412 L 15.712625,5.4309725 L 18.238501,8.4920278 L 14.175901,8.4894412 z "
	   oryx:anchors="top left"
       style="fill:black;fill-rule:evenodd;stroke:#000000;stroke-width:1px;stroke-linecap:butt;stroke-linejoin:miter;stroke-opacity:1" />
  </g>
</svg>
