<?xml version="1.0" encoding="utf-8" standalone="no" ?>
<svg 
	xmlns="http://www.w3.org/2000/svg"
	xmlns:svg="http://www.w3.org/2000/svg"
   	xmlns:oryx="http://www.b3mn.org/oryx"
   	xmlns:xlink="http://www.w3.org/1999/xlink"
	
	width="108px" 
	height="105px"
	version="1.0">
	<defs></defs>
	<oryx:magnets>
		<oryx:magnet oryx:cx="0" oryx:cy="52.5" oryx:anchors="left" />
		<oryx:magnet oryx:cx="54" oryx:cy="105" oryx:anchors="bottom" />
		<oryx:magnet oryx:cx="108" oryx:cy="52.5" oryx:anchors="right" />
		<oryx:magnet oryx:cx="54" oryx:cy="0" oryx:anchors="top" />
		<oryx:magnet oryx:cx="54" oryx:cy="52.5" oryx:default="yes" />
	</oryx:magnets>
	
	<g pointer-events="fill" oryx:minimumSize="50 49" oryx:maximumSize="200 194">

		<path id="bg_frame" oryx:resize="vertical horizontal" oryx:anchors="left right" fill="#FFFFFF" stroke="#000000" d="
			M107.592,10.517c0,4.458,0,77.584,0,83s-28.25,10.666-54,10.666S0.925,99.1,0.925,93.35s0-77.958,0-82.667"/>
		<path id="bg_frame2" oryx:resize="vertical horizontal" oryx:anchors="top left right" fill="#FFFFFF" stroke="#000000" d="
			M107.592,26.517c0,3.417-6.229,11.271-53.792,11.271c-47.563,0-52.875-8.062-52.875-11.104 M0.925,18.683
			c0,3.042,5.312,11.104,52.875,11.104c47.563,0,53.792-7.854,53.792-11.271 M0.925,10.683c0,4.043,5.312,11.104,52.875,11.104
			c47.563,0,53.792-6.729,53.792-11.271S86.529,0.662,53.758,0.662C20.987,0.662,0.925,6.64,0.925,10.683z M107.592,10.517v8.334
			M0.967,10.517v8.334 M107.592,18.517v8.334 M0.967,18.517v8.334"/>
			 	
		<text font-size="12" id="text_name" x="54" y="68" oryx:align="middle center" oryx:fittoelem="bg_frame" stroke="black" />
			 
	</g>
</svg>
