<?xml version="1.0" encoding="UTF-8" standalone="no"?>
<svg
   xmlns="http://www.w3.org/2000/svg"
   xmlns:oryx="http://www.b3mn.org/oryx"
   width="40"
   height="40"
   version="1.0">
  <defs></defs>
  <oryx:magnets>
  	<oryx:magnet oryx:cx="16" oryx:cy="16" oryx:default="yes" />
  </oryx:magnets>
  <g pointer-events="fill">
    <circle id="frame" cx="16" cy="16" r="14" stroke="black" fill="white" stroke-width="3"/>

  
    <g id="none"></g>
  
    <g id="cancel">
      <path d="M 9 9 L 23 23 M 9 23 L 23 9" fill="none" stroke="black" stroke-width="5" />
    </g>
  
    <g id="compensation">
      <polygon stroke="black" fill="black" stroke-width="1" points="15,9 15,23 8,16" stroke-linecap="butt" stroke-linejoin="miter" stroke-miterlimit="10" />
      <polygon stroke="black" fill="black" stroke-width="1" points="22,9 22,23 15,16" stroke-linecap="butt" stroke-linejoin="miter" stroke-miterlimit="10" />
    </g>
  
    <g id="error">
      <polygon stroke="black" fill="black" stroke-width="1" points="21,8 20,18.5 12,14.5 9,22 10,11.5 18,15.5" stroke-linecap="butt" stroke-linejoin="miter" stroke-miterlimit="10" />
    </g>
  
    <g id="link">
      <polygon stroke="black" fill="black" stroke-width="1" points="9,13 19,13 19,10 25,16 19,22 19,19 9,19" stroke-linecap="butt" stroke-linejoin="miter" stroke-miterlimit="10" />
    </g>

    <g id="message">
      <polyline stroke="black" fill="none" stroke-width="1" points="8,11 8,21 24,21 24,11 8,11 16,17 24,11" />
    </g>

    <g id="multiple">
      <polygon stroke="black" fill="black" stroke-width="1" points="16,7.5 18.5,12 23,12 20.5,16 23,20 18.5,20 16,24.5 13.5,20 9,20 11.5,16 9,12 13.5,12" stroke-linecap="butt" stroke-linejoin="miter" stroke-miterlimit="10" />
    </g>

    <g id="terminate">
      <circle cx="16" cy="16" r="9" stroke="black" fill="black" stroke-width="1"/>
    </g>
  </g>
</svg>