<?xml version="1.0" encoding="UTF-8" standalone="no"?>
<svg
   xmlns="http://www.w3.org/2000/svg"
   xmlns:svg="http://www.w3.org/2000/svg"
   xmlns:oryx="http://www.b3mn.org/oryx"
   xmlns:xlink="http://www.w3.org/1999/xlink"
   width="152"
   height="26"
   version="1.0">
  <defs></defs>
   <g oryx:minimumSize="30 24" oryx:maximumSize="350 24" >

	<g>
		<rect oryx:anchors="top" oryx:resize="horizontal" x="0" y="0" width="150" height="24" stroke="none" fill="#ffffff"/>
		<g>
			<rect oryx:resize="horizontal" x="0" y="6" width="150" height="1" stroke="none" fill="#000000"/>
			<rect oryx:resize="horizontal" x="0" y="7" width="150" height="1" stroke="none" fill="#888888"/>
			
		</g>
	</g>

	<g>
		<line fill="none" stroke="#000000" x1="0.759" y1="20" x2="0.759" y2="24"/>
		<line fill="none" stroke="#000000" x1="19.624" y1="20" x2="19.624" y2="24"/>
		<line fill="none" stroke="#000000" x1="38.105" y1="20" x2="38.105" y2="24"/>
		<line fill="none" stroke="#000000" x1="56.585" y1="20" x2="56.585" y2="24"/>
		<line fill="none" stroke="#000000" x1="75.065" y1="20" x2="75.065" y2="24"/>
		<line fill="none" stroke="#000000" x1="93.545" y1="20" x2="93.545" y2="24"/>
		<line fill="none" stroke="#000000" x1="112.025" y1="20" x2="112.025" y2="24"/>
		<line fill="none" stroke="#000000" x1="130.506" y1="20" x2="130.506" y2="24"/>
		<line fill="none" stroke="#000000" x1="148.986" y1="20" x2="148.986" y2="24"/>
	</g>

	<g>
		<rect x="25" y="0.5" stroke="#000000" width="6" height="10"/>
		<polyline stroke="#000000" points="31,10 28,14 25,10"/>
	</g>

    	
    
  </g>
</svg>