<?xml version="1.0" encoding="UTF-8" standalone="no"?>
<svg
   xmlns="http://www.w3.org/2000/svg"
   xmlns:svg="http://www.w3.org/2000/svg"
   xmlns:oryx="http://www.b3mn.org/oryx"
   xmlns:xlink="http://www.w3.org/1999/xlink"
   width="102"
   height="82"
   version="1.0">
	
  <defs></defs>
  
  <oryx:magnets>
  	<oryx:magnet 
  		oryx:cx="0" 
  		oryx:cy="40" 
  		oryx:anchors="left" />
  	<oryx:magnet 
  		oryx:cx="50" 
  		oryx:cy="80" 
  		oryx:anchors="bottom" />
  	<oryx:magnet 
  		oryx:cx="100" 
  		oryx:cy="40" 
  		oryx:anchors="right" />
  	<oryx:magnet 
  		oryx:cx="50" 
  		oryx:cy="0" 
  		oryx:anchors="top" />
  	<oryx:magnet 
  		oryx:cx="50" 
  		oryx:cy="40" 
  		oryx:default="yes" />
  </oryx:magnets>
  
  <g 
  	pointer-events="fill" 
    oryx:minimumSize="50 40">
    <rect 
    	id="mainBody" 
    	oryx:resize="vertical horizontal" 
    	x="0" 
    	y="0" 
    	width="100" 
    	height="80" 
    	rx="10" 
    	ry="10" 
    	stroke="black" 
    	stroke-width="1" 
    	fill="white" />
    
    <g id="documentation"
	   pointer-events="fill">
    	
    	<rect 
    		x="76" 
    		y="56" 
    		width="16" 
    		height="16" 
    		stroke="black" 
    		stroke-width="1"
    		oryx:anchors="bottom right"
    		fill="none" />
    	<path 
    		d="	M 78 58 L 90 58
    			M 78 62 L 90 62
    			M 78 66 L 90 66
    			M 78 70 L 90 70" 
    		fill="none"
    		oryx:anchors="bottom right"
    		stroke="black" />
  	</g>
  		
    <text
       id="label"
	   x="35" 
	   y="20" 
	   oryx:anchors="top left"
	   style="font-family:Arial; font-size: 12pt; fill:black;"></text>
	<g transform="translate(10,10)">
    	<path oryx:anchors="top left"
       		id="path2408"
       		d="M 9.348166,12.352751 L 20.346955,12.352751 L 20.346955,8.792044 L 27.360676,15.320006 L 20.506358,21.699607 L 20.506358,17.545451 L 9.02936,17.545451 L 9.348166,12.352751 z "
       		style="fill:none;fill-rule:evenodd;stroke:#000000;stroke-width:0.56707478px;stroke-linecap:butt;stroke-linejoin:miter;stroke-opacity:1" />
    	<path oryx:anchors="top left"
       		id="path2410"
       		d="M 18.296046,9.6303994 L 7.2972574,9.6303994 L 7.2972574,13.191106 L 0.28353739,6.6631444 L 7.1378544,0.28353739 L 7.1378544,4.4376994 L 18.614852,4.4376994 L 18.296046,9.6303994 z "
       		style="fill:none;fill-rule:evenodd;stroke:#000000;stroke-width:0.56707478px;stroke-linecap:butt;stroke-linejoin:miter;stroke-opacity:1" />
  	</g>
  </g>
</svg>