<?xml version="1.0" encoding="UTF-8" standalone="no"?>
<svg
   xmlns:oryx="http://www.b3mn.org/oryx"
   xmlns:dc="http://purl.org/dc/elements/1.1/"
   xmlns:cc="http://web.resource.org/cc/"
   xmlns:rdf="http://www.w3.org/1999/02/22-rdf-syntax-ns#"
   xmlns:svg="http://www.w3.org/2000/svg"
   xmlns="http://www.w3.org/2000/svg"
   width="600"
   height="550"
   >
  
  <defs >
  </defs>
  
  <oryx:magnets>
    <oryx:magnet
       oryx:cx="300"
       oryx:cy="250"
       oryx:default="yes" />
    <oryx:magnet
       oryx:cx="0"
       oryx:cy="250"
       oryx:anchors="left" />
    <oryx:magnet
       oryx:cx="300"
       oryx:cy="500"
       oryx:anchors="bottom" />
    <oryx:magnet
       oryx:cx="600"
       oryx:cy="250"
       oryx:anchors="right" />
    <oryx:magnet
       oryx:cx="300"
       oryx:cy="0"
       oryx:anchors="top" />
  </oryx:magnets>

  <g pointer-events="fill">
    <rect
       y="0"
       x="0"
       height="500"
       width="600"
       id="mainBody"
	   oryx:resize="vertical horizontal"
	   fill="white"
       stroke="black" 
       stroke-width="1"/>
    <text
       oryx:rotate="270"
       id="label"
	   x="10" 
	   y="200" 
	   oryx:align="middle left"
       style="font-size:12px;font-style:normal;font-weight:normal;fill:#000000;fill-opacity:1;stroke:none;stroke-width:1px;stroke-linecap:butt;stroke-linejoin:miter;stroke-opacity:1;font-family:Bitstream Vera Sans"
       xml:space="preserve"></text> 
   <path
       d="M 4.0691252,4.8530512 L 67.43122,4.8530512 L 67.43122,21.710856 L 4.0691252,21.710856 L 4.0691252,4.8530512 z M 6.6111363,11.761102 L 12.915823,9.0306333 L 12.915823,9.5403983 L 7.4900426,11.895867 L 12.915823,14.274773 L 12.915823,14.802117 L 6.6111363,12.048211 L 6.6111363,11.761102 z M 13.156058,11.063836 L 14.808402,10.395867 L 15.031059,10.395867 L 15.031059,11.649773 C 15.3084,11.177122 15.58672,10.846068 15.86602,10.656609 C 16.145314,10.467162 16.439259,10.372435 16.747856,10.37243 C 17.286914,10.372435 17.736132,10.583372 18.095512,11.005242 C 18.536913,11.520872 18.757616,12.192746 18.757621,13.020867 C 18.757616,13.94665 18.491991,14.712275 17.960746,15.317742 C 17.523242,15.813836 16.972461,16.061883 16.308402,16.061883 C 16.019337,16.061883 15.769337,16.020867 15.558402,15.938836 C 15.40215,15.880242 15.226369,15.763055 15.031059,15.587273 L 15.031059,17.222039 C 15.031057,17.589225 15.053518,17.822623 15.098442,17.922234 C 15.143361,18.021842 15.221486,18.100943 15.332817,18.159539 C 15.444142,18.21813 15.646291,18.247427 15.939262,18.24743 L 15.939262,18.464227 L 13.126761,18.464227 L 13.126761,18.24743 L 13.273245,18.24743 C 13.488089,18.251334 13.671682,18.210318 13.824027,18.124383 C 13.898245,18.081412 13.955863,18.012076 13.996879,17.916375 C 14.037894,17.82067 14.058402,17.577506 14.058402,17.186883 L 14.058402,12.112664 C 14.058402,11.765012 14.042777,11.544309 14.011527,11.450555 C 13.980277,11.356809 13.930472,11.286497 13.862113,11.239617 C 13.793753,11.192747 13.700979,11.169309 13.583792,11.169305 C 13.490042,11.169309 13.370901,11.196653 13.22637,11.251336 L 13.156058,11.063836 z M 15.031059,11.995477 L 15.031059,13.999383 C 15.031057,14.432978 15.048635,14.718134 15.083793,14.854852 C 15.138479,15.081415 15.272268,15.280633 15.48516,15.452508 C 15.698048,15.624383 15.966603,15.71032 16.290824,15.71032 C 16.681446,15.71032 16.997852,15.557977 17.240043,15.253289 C 17.556445,14.854853 17.714648,14.294306 17.714652,13.571648 C 17.714648,12.751339 17.534961,12.12048 17.17559,11.67907 C 16.925586,11.374387 16.628711,11.222044 16.284965,11.222039 C 16.097462,11.222044 15.911915,11.268919 15.728324,11.362664 C 15.587697,11.432981 15.355275,11.643918 15.031059,11.995477 L 15.031059,11.995477 z M 21.11309,10.37243 L 21.11309,11.579461 C 21.562306,10.774779 22.023243,10.372435 22.495902,10.37243 C 22.710743,10.372435 22.888477,10.437865 23.029106,10.568719 C 23.169727,10.699583 23.240039,10.85095 23.240043,11.02282 C 23.240039,11.175169 23.189258,11.304075 23.087699,11.409539 C 22.986133,11.515012 22.865039,11.567746 22.724418,11.567742 C 22.587696,11.567746 22.434376,11.500364 22.264457,11.365594 C 22.094532,11.230833 21.968556,11.16345 21.886527,11.163445 C 21.816212,11.16345 21.740041,11.202512 21.658012,11.280633 C 21.482228,11.440793 21.300588,11.704465 21.11309,12.071648 L 21.11309,14.643914 C 21.113088,14.94079 21.150197,15.165399 21.224418,15.317742 C 21.275197,15.423211 21.365041,15.511102 21.493949,15.581414 C 21.622853,15.651727 21.8084,15.686883 22.05059,15.686883 L 22.05059,15.89782 L 19.302543,15.89782 L 19.302543,15.686883 C 19.57598,15.686883 19.779105,15.643914 19.911918,15.557977 C 20.009573,15.495477 20.077933,15.395868 20.116996,15.259148 C 20.136526,15.192743 20.146292,15.00329 20.146293,14.690789 L 20.146293,12.610711 C 20.146292,11.985715 20.133597,11.613645 20.108207,11.4945 C 20.082816,11.375364 20.035941,11.28845 19.967582,11.233758 C 19.899222,11.179075 19.814261,11.151731 19.712699,11.151727 C 19.591605,11.151731 19.454887,11.181028 19.302543,11.239617 L 19.243949,11.02868 L 20.866996,10.37243 L 21.11309,10.37243 z M 26.17559,10.37243 C 26.988086,10.372435 27.640429,10.681029 28.132621,11.298211 C 28.550585,11.825559 28.759569,12.431027 28.759574,13.114617 C 28.759569,13.595088 28.644334,14.081416 28.413871,14.573602 C 28.183397,15.06579 27.866015,15.436883 27.461723,15.686883 C 27.057422,15.936883 26.607227,16.061883 26.111137,16.061883 C 25.302541,16.061883 24.659963,15.739617 24.183402,15.095086 C 23.781058,14.552118 23.579886,13.942744 23.579887,13.266961 C 23.579886,12.774777 23.701957,12.285519 23.946098,11.799187 C 24.190237,11.312864 24.511526,10.953489 24.909965,10.721062 C 25.3084,10.488646 25.730275,10.372435 26.17559,10.37243 L 26.17559,10.37243 z M 25.993949,10.753289 C 25.786915,10.753294 25.578908,10.814818 25.369926,10.937859 C 25.16094,11.060911 24.991994,11.276731 24.86309,11.58532 C 24.734182,11.893918 24.669729,12.290402 24.669731,12.774773 C 24.669729,13.556026 24.825002,14.229853 25.135551,14.796258 C 25.446095,15.362665 25.855275,15.645867 26.36309,15.645867 C 26.741993,15.645867 27.054492,15.489618 27.30059,15.177117 C 27.546679,14.864618 27.669726,14.327509 27.669731,13.565789 C 27.669726,12.612667 27.464648,11.862668 27.054496,11.315789 C 26.777149,10.940794 26.423634,10.753294 25.993949,10.753289 L 25.993949,10.753289 z M 34.109184,13.858758 C 33.964648,14.56579 33.681445,15.109735 33.259574,15.490594 C 32.837696,15.871453 32.370899,16.061883 31.859184,16.061883 C 31.249807,16.061883 30.718557,15.806023 30.265434,15.294305 C 29.812308,14.782587 29.585746,14.091181 29.585746,13.220086 C 29.585746,12.376339 29.836722,11.690793 30.338676,11.163445 C 30.840627,10.636107 31.443166,10.372435 32.146293,10.37243 C 32.673633,10.372435 33.107227,10.512083 33.447074,10.791375 C 33.786913,11.070677 33.956835,11.360715 33.95684,11.661492 C 33.956835,11.809934 33.908984,11.930051 33.813285,12.021844 C 33.717578,12.113644 33.583789,12.159543 33.411918,12.159539 C 33.181445,12.159543 33.007617,12.085324 32.890434,11.936883 C 32.824024,11.854856 32.780079,11.698606 32.758598,11.468133 C 32.73711,11.237669 32.658008,11.061888 32.521293,10.940789 C 32.384571,10.823607 32.195118,10.765013 31.952934,10.765008 C 31.562306,10.765013 31.247854,10.909544 31.009574,11.198602 C 30.693167,11.581418 30.534964,12.087277 30.534965,12.71618 C 30.534964,13.356807 30.69219,13.922236 31.006645,14.412469 C 31.321096,14.902704 31.7459,15.147821 32.281059,15.14782 C 32.663868,15.147821 33.007617,15.016962 33.312309,14.755242 C 33.527148,14.575556 33.736132,14.249384 33.939262,13.776727 L 34.109184,13.858758 z M 35.773246,12.552117 C 35.769339,13.348995 35.962698,13.973994 36.353324,14.427117 C 36.743947,14.880243 37.202931,15.106805 37.730277,15.106805 C 38.081836,15.106805 38.3875,15.010126 38.64727,14.816766 C 38.907031,14.623407 39.124804,14.292353 39.30059,13.823602 L 39.482231,13.940789 C 39.400194,14.475947 39.161913,14.963251 38.767387,15.402703 C 38.372852,15.842156 37.878712,16.061883 37.284965,16.061883 C 36.640432,16.061883 36.088674,15.810906 35.629692,15.308953 C 35.170706,14.807001 34.941215,14.132197 34.941215,13.284539 C 34.941215,12.366574 35.176566,11.650754 35.64727,11.137078 C 36.117971,10.623411 36.708791,10.366576 37.419731,10.36657 C 38.02129,10.366576 38.51543,10.564818 38.902152,10.961297 C 39.288866,11.357786 39.482226,11.888059 39.482231,12.552117 L 35.773246,12.552117 z M 35.773246,12.212273 L 38.257621,12.212273 C 38.238086,11.868527 38.197071,11.62634 38.134574,11.485711 C 38.036915,11.266966 37.891407,11.095091 37.698051,10.970086 C 37.504689,10.845091 37.30254,10.782591 37.091606,10.782586 C 36.767385,10.782591 36.477346,10.908567 36.221488,11.160516 C 35.965628,11.412473 35.816214,11.763059 35.773246,12.212273 L 35.773246,12.212273 z M 43.659965,10.37243 L 43.659965,12.200555 L 43.466606,12.200555 C 43.318165,11.62634 43.127735,11.235716 42.895317,11.02868 C 42.662892,10.821653 42.366994,10.718138 42.007621,10.718133 C 41.734182,10.718138 41.513479,10.790403 41.345512,10.93493 C 41.177542,11.079466 41.093557,11.239622 41.093559,11.415398 C 41.093557,11.634153 41.156057,11.821652 41.281059,11.977898 C 41.402151,12.138058 41.648244,12.30798 42.01934,12.487664 L 42.874809,12.90368 C 43.667774,13.290401 44.064258,13.800166 44.064262,14.432977 C 44.064258,14.921259 43.879687,15.314813 43.510551,15.613641 C 43.141407,15.912469 42.728321,16.061883 42.271293,16.061883 C 41.943166,16.061883 41.568166,16.003289 41.146293,15.886102 C 41.017386,15.847039 40.911917,15.827508 40.829887,15.827508 C 40.740042,15.827508 40.66973,15.878289 40.618949,15.979852 L 40.42559,15.979852 L 40.42559,14.063836 L 40.618949,14.063836 C 40.728323,14.610712 40.937308,15.022821 41.245902,15.300164 C 41.554494,15.577508 41.900197,15.71618 42.283012,15.71618 C 42.55254,15.71618 42.772267,15.637078 42.942192,15.478875 C 43.11211,15.320672 43.197071,15.130243 43.197074,14.907586 C 43.197071,14.638056 43.102344,14.411494 42.912895,14.227898 C 42.723439,14.044306 42.345509,13.811885 41.779106,13.530633 C 41.212698,13.249385 40.841605,12.995479 40.665824,12.768914 C 40.490042,12.546261 40.402152,12.265011 40.402152,11.925164 C 40.402152,11.483762 40.553519,11.114622 40.856254,10.817742 C 41.158987,10.520873 41.550588,10.372435 42.031059,10.37243 C 42.241994,10.372435 42.497853,10.417357 42.798637,10.507195 C 42.997852,10.565794 43.130665,10.595091 43.197074,10.595086 C 43.259571,10.595091 43.308399,10.581419 43.343559,10.55407 C 43.378711,10.526732 43.419727,10.466185 43.466606,10.37243 L 43.659965,10.37243 z M 48.324027,10.37243 L 48.324027,12.200555 L 48.130668,12.200555 C 47.982227,11.62634 47.791798,11.235716 47.559379,11.02868 C 47.326954,10.821653 47.031056,10.718138 46.671684,10.718133 C 46.398244,10.718138 46.177541,10.790403 46.009574,10.93493 C 45.841604,11.079466 45.75762,11.239622 45.757621,11.415398 C 45.75762,11.634153 45.82012,11.821652 45.945121,11.977898 C 46.066213,12.138058 46.312307,12.30798 46.683402,12.487664 L 47.538871,12.90368 C 48.331836,13.290401 48.72832,13.800166 48.728324,14.432977 C 48.72832,14.921259 48.54375,15.314813 48.174613,15.613641 C 47.805469,15.912469 47.392384,16.061883 46.935356,16.061883 C 46.607228,16.061883 46.232229,16.003289 45.810356,15.886102 C 45.681448,15.847039 45.575979,15.827508 45.493949,15.827508 C 45.404105,15.827508 45.333792,15.878289 45.283012,15.979852 L 45.089652,15.979852 L 45.089652,14.063836 L 45.283012,14.063836 C 45.392386,14.610712 45.60137,15.022821 45.909965,15.300164 C 46.218557,15.577508 46.56426,15.71618 46.947074,15.71618 C 47.216603,15.71618 47.436329,15.637078 47.606254,15.478875 C 47.776173,15.320672 47.861133,15.130243 47.861137,14.907586 C 47.861133,14.638056 47.766407,14.411494 47.576957,14.227898 C 47.387501,14.044306 47.009572,13.811885 46.443168,13.530633 C 45.87676,13.249385 45.505667,12.995479 45.329887,12.768914 C 45.154105,12.546261 45.066214,12.265011 45.066215,11.925164 C 45.066214,11.483762 45.217581,11.114622 45.520317,10.817742 C 45.82305,10.520873 46.214651,10.372435 46.695121,10.37243 C 46.906056,10.372435 47.161915,10.417357 47.462699,10.507195 C 47.661915,10.565794 47.794727,10.595091 47.861137,10.595086 C 47.923633,10.595091 47.972461,10.581419 48.007621,10.55407 C 48.042774,10.526732 48.083789,10.466185 48.130668,10.37243 L 48.324027,10.37243 z M 50.64434,14.761102 C 50.827932,14.761103 50.982229,14.824579 51.107231,14.951531 C 51.232228,15.078485 51.294728,15.231805 51.294731,15.411492 C 51.294728,15.59118 51.231252,15.7445 51.104301,15.871453 C 50.977346,15.998406 50.824026,16.061883 50.64434,16.061883 C 50.464651,16.061883 50.311331,15.998406 50.184379,15.871453 C 50.057425,15.7445 49.993948,15.59118 49.993949,15.411492 C 49.993948,15.227899 50.057425,15.073602 50.184379,14.948602 C 50.311331,14.823603 50.464651,14.761103 50.64434,14.761102 L 50.64434,14.761102 z M 53.64434,14.761102 C 53.827932,14.761103 53.982229,14.824579 54.107231,14.951531 C 54.232228,15.078485 54.294728,15.231805 54.294731,15.411492 C 54.294728,15.59118 54.231252,15.7445 54.104301,15.871453 C 53.977346,15.998406 53.824026,16.061883 53.64434,16.061883 C 53.464651,16.061883 53.311331,15.998406 53.184379,15.871453 C 53.057425,15.7445 52.993948,15.59118 52.993949,15.411492 C 52.993948,15.227899 53.057425,15.073602 53.184379,14.948602 C 53.311331,14.823603 53.464651,14.761103 53.64434,14.761102 L 53.64434,14.761102 z M 56.64434,14.761102 C 56.827932,14.761103 56.982229,14.824579 57.107231,14.951531 C 57.232228,15.078485 57.294728,15.231805 57.294731,15.411492 C 57.294728,15.59118 57.231252,15.7445 57.104301,15.871453 C 56.977346,15.998406 56.824026,16.061883 56.64434,16.061883 C 56.464651,16.061883 56.311331,15.998406 56.184379,15.871453 C 56.057425,15.7445 55.993948,15.59118 55.993949,15.411492 C 55.993948,15.227899 56.057425,15.073602 56.184379,14.948602 C 56.311331,14.823603 56.464651,14.761103 56.64434,14.761102 L 56.64434,14.761102 z M 64.665824,12.071648 L 58.361137,14.802117 L 58.361137,14.298211 L 63.792777,11.942742 L 58.361137,9.5638363 L 58.361137,9.0306333 L 64.665824,11.784539 L 64.665824,12.071648 z "
	  oryx:anchors="top left"
       fill="white"   
       stroke="black" 
       stroke-width="0.5"  />
  </g>
</svg>
